<?xml version="1.0" encoding="UTF-8"?>
<svg xmlns="http://www.w3.org/2000/svg" xmlns:xlink="http://www.w3.org/1999/xlink" viewBox="0 0 157.44 157.48">
  <defs>
    <style>
      .cls-1 {
        fill: url(#_1071_3-5);
      }

      .cls-1, .cls-2, .cls-3, .cls-4, .cls-5, .cls-6, .cls-7, .cls-8, .cls-9, .cls-10, .cls-11, .cls-12, .cls-13, .cls-14, .cls-15, .cls-16, .cls-17, .cls-18, .cls-19, .cls-20, .cls-21, .cls-22, .cls-23, .cls-24, .cls-25, .cls-26, .cls-27, .cls-28, .cls-29, .cls-30, .cls-31, .cls-32, .cls-33, .cls-34, .cls-35, .cls-36, .cls-37, .cls-38, .cls-39, .cls-40, .cls-41, .cls-42, .cls-43, .cls-44, .cls-45, .cls-46, .cls-47, .cls-48, .cls-49, .cls-50, .cls-51, .cls-52, .cls-53, .cls-54, .cls-55, .cls-56, .cls-57, .cls-58, .cls-59, .cls-60, .cls-61, .cls-62, .cls-63, .cls-64, .cls-65, .cls-66, .cls-67, .cls-68, .cls-69, .cls-70, .cls-71, .cls-72, .cls-73, .cls-74, .cls-75, .cls-76, .cls-77, .cls-78, .cls-79, .cls-80, .cls-81, .cls-82, .cls-83, .cls-84, .cls-85, .cls-86, .cls-87 {
        opacity: .5;
      }

      .cls-1, .cls-4, .cls-5, .cls-6, .cls-7, .cls-9, .cls-10, .cls-11, .cls-13, .cls-14, .cls-15, .cls-16, .cls-18, .cls-20, .cls-21, .cls-22, .cls-24, .cls-25, .cls-26, .cls-30, .cls-34, .cls-35, .cls-38, .cls-39, .cls-46, .cls-47, .cls-49, .cls-50, .cls-51, .cls-52, .cls-53, .cls-54, .cls-55, .cls-56, .cls-57, .cls-58, .cls-59, .cls-60, .cls-61, .cls-62, .cls-64, .cls-65, .cls-67, .cls-68, .cls-72, .cls-73, .cls-76, .cls-77, .cls-80, .cls-82, .cls-83, .cls-86, .cls-87 {
        mix-blend-mode: multiply;
      }

      .cls-2 {
        fill: url(#_28_3-18);
      }

      .cls-2, .cls-3, .cls-8, .cls-12, .cls-17, .cls-19, .cls-88, .cls-23, .cls-27, .cls-28, .cls-89, .cls-29, .cls-31, .cls-32, .cls-33, .cls-36, .cls-37, .cls-40, .cls-41, .cls-42, .cls-43, .cls-44, .cls-45, .cls-48, .cls-63, .cls-66, .cls-69, .cls-70, .cls-71, .cls-74, .cls-75, .cls-78, .cls-79, .cls-81, .cls-84, .cls-85 {
        mix-blend-mode: color-dodge;
      }

      .cls-3 {
        fill: url(#_28_3-9);
      }

      .cls-4 {
        fill: url(#_1119_3-18);
      }

      .cls-90 {
        fill: url(#_1358_3-8);
      }

      .cls-91 {
        fill: url(#_1501_3);
      }

      .cls-92 {
        fill: url(#_1358_3-10);
      }

      .cls-93 {
        fill: url(#_1358_3-19);
      }

      .cls-94 {
        fill: url(#_1511_3);
      }

      .cls-95 {
        fill: url(#_1358_3-7);
      }

      .cls-5 {
        fill: url(#_1071_3-4);
      }

      .cls-6 {
        fill: url(#_1119_3-21);
      }

      .cls-96 {
        fill: url(#_1358_3-2);
      }

      .cls-7 {
        fill: url(#_1513_3-2);
      }

      .cls-8 {
        fill: url(#_28_3-22);
      }

      .cls-9 {
        fill: url(#_1071_3-8);
      }

      .cls-10 {
        fill: url(#_1119_3-7);
      }

      .cls-11 {
        fill: url(#_1119_3-12);
      }

      .cls-97 {
        fill: url(#_1112_3-5);
      }

      .cls-98 {
        fill: url(#_1358_3-4);
      }

      .cls-12 {
        fill: url(#_28_3);
      }

      .cls-99 {
        fill: url(#_1358_3-16);
      }

      .cls-13 {
        fill: url(#_1119_3-13);
      }

      .cls-14 {
        fill: url(#_1071_3-7);
      }

      .cls-100 {
        fill: #fff;
      }

      .cls-101 {
        fill: url(#_1358_3-11);
      }

      .cls-15 {
        fill: url(#_1119_3-14);
      }

      .cls-16 {
        fill: url(#_1071_3-6);
      }

      .cls-17 {
        fill: url(#_28_3-15);
      }

      .cls-102 {
        fill: url(#_202_3);
      }

      .cls-103 {
        fill: url(#_1501_3-2);
      }

      .cls-104 {
        fill: url(#_1358_3);
      }

      .cls-105 {
        fill: url(#_1358_3-3);
      }

      .cls-18 {
        fill: url(#_1119_3-24);
      }

      .cls-19 {
        fill: url(#_28_3-25);
      }

      .cls-20 {
        fill: url(#_1119_3-11);
      }

      .cls-88 {
        fill: url(#_1379_3);
      }

      .cls-88, .cls-89 {
        opacity: .6;
      }

      .cls-21 {
        fill: url(#_1119_3-29);
      }

      .cls-106 {
        fill: url(#_1112_3-4);
      }

      .cls-107 {
        fill: url(#_1112_3-3);
      }

      .cls-22 {
        fill: url(#_1119_3-35);
      }

      .cls-108 {
        fill: url(#_1358_3-14);
      }

      .cls-23 {
        fill: url(#_28_3-20);
      }

      .cls-24 {
        fill: url(#_1119_3-32);
      }

      .cls-25 {
        fill: url(#_1119_3-30);
      }

      .cls-26 {
        fill: url(#_1071_3-9);
      }

      .cls-27 {
        fill: url(#_28_3-23);
      }

      .cls-28 {
        fill: url(#_28_3-11);
      }

      .cls-89 {
        fill: url(#Dégradé_sans_nom_1194);
      }

      .cls-29 {
        fill: url(#_28_3-28);
      }

      .cls-109 {
        fill: url(#_1358_3-6);
      }

      .cls-30 {
        fill: url(#_1119_3-36);
      }

      .cls-31 {
        fill: url(#_28_3-32);
      }

      .cls-110 {
        fill: url(#_1112_3);
      }

      .cls-32 {
        fill: url(#_28_3-3);
      }

      .cls-33 {
        fill: url(#_28_3-19);
      }

      .cls-34 {
        fill: url(#_1119_3-4);
      }

      .cls-35 {
        fill: url(#_1119_3-37);
      }

      .cls-111 {
        fill: url(#_1358_3-17);
      }

      .cls-36 {
        fill: url(#_28_3-7);
      }

      .cls-112 {
        isolation: isolate;
      }

      .cls-37 {
        fill: url(#_28_3-29);
      }

      .cls-38 {
        fill: url(#_1071_3-3);
      }

      .cls-39 {
        fill: url(#_1119_3-3);
      }

      .cls-40 {
        fill: url(#_28_3-14);
      }

      .cls-113 {
        fill: url(#_1358_3-18);
      }

      .cls-41 {
        fill: url(#_28_3-12);
      }

      .cls-42 {
        fill: url(#_229_3);
      }

      .cls-43 {
        fill: url(#_28_3-17);
      }

      .cls-44 {
        fill: url(#_28_3-6);
      }

      .cls-45 {
        fill: url(#_28_3-26);
      }

      .cls-46 {
        fill: url(#_1119_3-28);
      }

      .cls-114 {
        fill: url(#_1112_3-7);
      }

      .cls-47 {
        fill: url(#_1119_3-16);
      }

      .cls-48 {
        fill: url(#_28_3-24);
      }

      .cls-49 {
        fill: url(#_1119_3);
      }

      .cls-115 {
        fill: url(#_1358_3-15);
      }

      .cls-50 {
        fill: url(#_1071_3-2);
      }

      .cls-51 {
        fill: url(#_1119_3-5);
      }

      .cls-52 {
        fill: url(#_1119_3-38);
      }

      .cls-116 {
        fill: url(#_1358_3-5);
      }

      .cls-117 {
        fill: url(#_1112_3-2);
      }

      .cls-118 {
        fill: url(#_1358_3-20);
      }

      .cls-53 {
        fill: url(#_1119_3-17);
      }

      .cls-54 {
        fill: url(#_1513_3-3);
      }

      .cls-55 {
        fill: url(#_1119_3-20);
      }

      .cls-56 {
        fill: url(#_1119_3-25);
      }

      .cls-57 {
        fill: url(#_1119_3-2);
      }

      .cls-58 {
        fill: url(#_1119_3-31);
      }

      .cls-59 {
        fill: url(#_1071_3-11);
      }

      .cls-60 {
        fill: url(#_1513_3);
      }

      .cls-119 {
        fill: url(#_1358_3-9);
      }

      .cls-61 {
        fill: url(#_1119_3-26);
      }

      .cls-62 {
        fill: url(#_1119_3-15);
      }

      .cls-63 {
        fill: url(#_28_3-13);
      }

      .cls-64 {
        fill: url(#_1119_3-8);
      }

      .cls-120 {
        fill: url(#_1358_3-13);
      }

      .cls-121 {
        fill: url(#_1112_3-8);
      }

      .cls-65 {
        fill: url(#_1119_3-23);
      }

      .cls-66 {
        fill: url(#_28_3-27);
      }

      .cls-67 {
        fill: url(#_1119_3-27);
      }

      .cls-68 {
        fill: url(#_1119_3-6);
      }

      .cls-69 {
        fill: url(#_28_3-8);
      }

      .cls-70 {
        fill: url(#_28_3-21);
      }

      .cls-71 {
        fill: url(#_28_3-33);
      }

      .cls-72 {
        fill: url(#_1119_3-22);
      }

      .cls-73 {
        fill: url(#_1071_3-12);
      }

      .cls-74 {
        fill: url(#_28_3-10);
      }

      .cls-75 {
        fill: url(#_28_3-16);
      }

      .cls-76 {
        fill: url(#_1119_3-33);
      }

      .cls-77 {
        fill: url(#_1119_3-9);
      }

      .cls-78 {
        fill: url(#_28_3-4);
      }

      .cls-79 {
        fill: url(#_28_3-31);
      }

      .cls-122 {
        fill: url(#linear-gradient);
      }

      .cls-80 {
        fill: url(#_1119_3-34);
      }

      .cls-81 {
        fill: url(#_28_3-5);
      }

      .cls-82 {
        fill: url(#_1119_3-10);
      }

      .cls-123 {
        fill: url(#_1112_3-6);
      }

      .cls-83 {
        fill: url(#_1119_3-19);
      }

      .cls-84 {
        fill: url(#_28_3-30);
      }

      .cls-124 {
        fill: url(#_1358_3-12);
      }

      .cls-85 {
        fill: url(#_28_3-2);
      }

      .cls-86 {
        fill: url(#_1071_3-10);
      }

      .cls-87 {
        fill: url(#_1071_3);
      }
    </style>
    <linearGradient id="Dégradé_sans_nom_1194" data-name="Dégradé sans nom 1194" x1="79.25" y1="42.26" x2="79.25" y2="112.79" gradientUnits="userSpaceOnUse">
      <stop offset="0" stop-color="#fff"/>
      <stop offset="1" stop-color="#efa17a"/>
    </linearGradient>
    <linearGradient id="_1358_3" data-name="  1358 3" x1="46.98" y1="38.03" x2="58.71" y2="38.03" gradientUnits="userSpaceOnUse">
      <stop offset="0" stop-color="#d64b51"/>
      <stop offset="1" stop-color="#f0a37a"/>
    </linearGradient>
    <linearGradient id="_1119_3" data-name="  1119 3" x1="-8460.31" y1="-1271.79" x2="-8451.73" y2="-1255.07" gradientTransform="translate(-8398.66 -1246.47) rotate(-162.87) scale(1 -1)" gradientUnits="userSpaceOnUse">
      <stop offset="0" stop-color="#fff"/>
      <stop offset=".44" stop-color="#ed500c"/>
      <stop offset="1" stop-color="#b45a0e"/>
    </linearGradient>
    <linearGradient id="_1071_3" data-name="  1071 3" x1="-8455.41" y1="-1263.09" x2="-8457.98" y2="-1253.57" gradientTransform="translate(-8398.66 -1246.47) rotate(-162.87) scale(1 -1)" gradientUnits="userSpaceOnUse">
      <stop offset="0" stop-color="#b8322f"/>
      <stop offset=".68" stop-color="#ea589f"/>
      <stop offset="1" stop-color="#ff69cf"/>
    </linearGradient>
    <linearGradient id="_28_3" data-name="  28 3" x1="-9445.31" y1="-3804.98" x2="-9452.24" y2="-3799.54" gradientTransform="translate(-9119.8 -4383.86) rotate(-132.31) scale(1 -1)" gradientUnits="userSpaceOnUse">
      <stop offset="0" stop-color="#23eb51"/>
      <stop offset="1" stop-color="#000"/>
    </linearGradient>
    <linearGradient id="_28_3-2" data-name="  28 3" x1="-9445.65" y1="-3811.65" x2="-9438.71" y2="-3811.65" xlink:href="#_28_3"/>
    <linearGradient id="_1119_3-2" data-name="  1119 3" x1="-8457.79" y1="-1256.36" x2="-8449.63" y2="-1256.36" xlink:href="#_1119_3"/>
    <linearGradient id="_1119_3-3" data-name="  1119 3" x1="-8458.03" y1="-1264.5" x2="-8452.55" y2="-1257.1" xlink:href="#_1119_3"/>
    <linearGradient id="_1358_3-2" data-name="  1358 3" x1="30.64" y1="51.47" x2="51" y2="51.47" xlink:href="#_1358_3"/>
    <linearGradient id="_1119_3-4" data-name="  1119 3" x1="-5874.16" y1="929.79" x2="-5867.24" y2="943.28" gradientTransform="translate(-5837.33 935.78) rotate(162.37) scale(1 -1)" xlink:href="#_1119_3"/>
    <linearGradient id="_1071_3-2" data-name="  1071 3" x1="-3784.47" y1="880.11" x2="-3792.32" y2="886.28" gradientTransform="translate(-3363.37 1923.9) rotate(138.09) scale(1 -1)" xlink:href="#_1071_3"/>
    <linearGradient id="_28_3-3" data-name="  28 3" x1="-3784.82" y1="881.64" x2="-3791.71" y2="887.05" gradientTransform="translate(-3363.37 1923.9) rotate(138.09) scale(1 -1)" xlink:href="#_28_3"/>
    <linearGradient id="_28_3-4" data-name="  28 3" x1="-5869.65" y1="933.64" x2="-5862.27" y2="933.64" gradientTransform="translate(-5837.33 935.78) rotate(162.37) scale(1 -1)" xlink:href="#_28_3"/>
    <linearGradient id="_1119_3-5" data-name="  1119 3" x1="-3791.29" y1="886.3" x2="-3780.56" y2="886.3" gradientTransform="translate(-3363.37 1923.9) rotate(138.09) scale(1 -1)" xlink:href="#_1119_3"/>
    <linearGradient id="_1119_3-6" data-name="  1119 3" x1="-5872.54" y1="938.47" x2="-5873.82" y2="935.95" gradientTransform="translate(-5837.33 935.78) rotate(162.37) scale(1 -1)" xlink:href="#_1119_3"/>
    <linearGradient id="_1358_3-3" data-name="  1358 3" x1="48.59" y1="51.71" x2="41.02" y2="37.02" xlink:href="#_1358_3"/>
    <linearGradient id="_1119_3-7" data-name="  1119 3" x1="-1481.24" y1="177.34" x2="-1479.43" y2="190.03" gradientTransform="translate(1512.22 -221.03) rotate(-3.19)" xlink:href="#_1119_3"/>
    <linearGradient id="_1071_3-3" data-name="  1071 3" x1="-7615.32" y1="-202.25" x2="-7624.04" y2="-195.4" gradientTransform="translate(-7567.31 -279.66) rotate(-176.06) scale(1 -1)" xlink:href="#_1071_3"/>
    <linearGradient id="_28_3-5" data-name="  28 3" x1="-7615.84" y1="-200.99" x2="-7623.63" y2="-194.87" gradientTransform="translate(-7567.31 -279.66) rotate(-176.06) scale(1 -1)" xlink:href="#_28_3"/>
    <linearGradient id="_28_3-6" data-name="  28 3" x1="-7617.01" y1="-208.42" x2="-7608.42" y2="-208.42" gradientTransform="translate(-7567.31 -279.66) rotate(-176.06) scale(1 -1)" xlink:href="#_28_3"/>
    <linearGradient id="_1358_3-4" data-name="  1358 3" x1="98.73" x2="110.46" xlink:href="#_1358_3"/>
    <linearGradient id="_1119_3-8" data-name="  1119 3" x1="1065.84" y1="1665.01" x2="1074.41" y2="1681.72" gradientTransform="translate(-1412.27 -1246.47) rotate(-17.13)" xlink:href="#_1119_3"/>
    <linearGradient id="_1071_3-4" data-name="  1071 3" x1="1070.74" y1="1673.71" x2="1068.16" y2="1683.22" gradientTransform="translate(-1412.27 -1246.47) rotate(-17.13)" xlink:href="#_1071_3"/>
    <linearGradient id="_28_3-7" data-name="  28 3" x1="-2735" y1="3566.19" x2="-2741.92" y2="3571.63" gradientTransform="translate(-691.12 -4383.86) rotate(-47.69)" xlink:href="#_28_3"/>
    <linearGradient id="_28_3-8" data-name="  28 3" x1="-2735.34" y1="3559.52" x2="-2728.4" y2="3559.52" gradientTransform="translate(-691.12 -4383.86) rotate(-47.69)" xlink:href="#_28_3"/>
    <linearGradient id="_1119_3-9" data-name="  1119 3" x1="1068.35" y1="1680.44" x2="1076.52" y2="1680.44" gradientTransform="translate(-1412.27 -1246.47) rotate(-17.13)" xlink:href="#_1119_3"/>
    <linearGradient id="_1119_3-10" data-name="  1119 3" x1="1068.11" y1="1672.29" x2="1073.6" y2="1679.7" gradientTransform="translate(-1412.27 -1246.47) rotate(-17.13)" xlink:href="#_1119_3"/>
    <linearGradient id="_1358_3-5" data-name="  1358 3" x1="106.44" y1="51.47" x2="126.8" y2="51.47" xlink:href="#_1358_3"/>
    <linearGradient id="_1119_3-11" data-name="  1119 3" x1="3626.1" y1="-2089.76" x2="3633.02" y2="-2076.27" gradientTransform="translate(-3973.6 935.78) rotate(17.63)" xlink:href="#_1119_3"/>
    <linearGradient id="_1071_3-5" data-name="  1071 3" x1="3633.56" y1="-5778.37" x2="3625.71" y2="-5772.2" gradientTransform="translate(-6447.55 1923.9) rotate(41.91)" xlink:href="#_1071_3"/>
    <linearGradient id="_28_3-9" data-name="  28 3" x1="3633.21" y1="-5776.85" x2="3626.32" y2="-5771.43" gradientTransform="translate(-6447.55 1923.9) rotate(41.91)" xlink:href="#_28_3"/>
    <linearGradient id="_28_3-10" data-name="  28 3" x1="3630.61" y1="-2085.9" x2="3637.99" y2="-2085.9" gradientTransform="translate(-3973.6 935.78) rotate(17.63)" xlink:href="#_28_3"/>
    <linearGradient id="_1119_3-12" data-name="  1119 3" x1="3626.74" y1="-5772.18" x2="3637.48" y2="-5772.18" gradientTransform="translate(-6447.55 1923.9) rotate(41.91)" xlink:href="#_1119_3"/>
    <linearGradient id="_1119_3-13" data-name="  1119 3" x1="3627.72" y1="-2081.08" x2="3626.43" y2="-2083.6" gradientTransform="translate(-3973.6 935.78) rotate(17.63)" xlink:href="#_1119_3"/>
    <linearGradient id="_1358_3-6" data-name="  1358 3" x1="114.86" y1="56.66" x2="113.78" y2="41.53" xlink:href="#_1358_3"/>
    <linearGradient id="_1119_3-14" data-name="  1119 3" x1="-11433.72" y1="-376.85" x2="-11431.91" y2="-364.16" gradientTransform="translate(-11323.15 -221.03) rotate(-176.81) scale(1 -1)" xlink:href="#_1119_3"/>
    <linearGradient id="_1071_3-6" data-name="  1071 3" x1="2329.87" y1="482.62" x2="2321.14" y2="489.48" gradientTransform="translate(-2243.62 -279.66) rotate(-3.94)" xlink:href="#_1071_3"/>
    <linearGradient id="_28_3-11" data-name="  28 3" x1="2329.35" y1="483.89" x2="2321.56" y2="490.01" gradientTransform="translate(-2243.62 -279.66) rotate(-3.94)" xlink:href="#_28_3"/>
    <linearGradient id="_28_3-12" data-name="  28 3" x1="2328.18" y1="476.46" x2="2336.76" y2="476.46" gradientTransform="translate(-2243.62 -279.66) rotate(-3.94)" xlink:href="#_28_3"/>
    <linearGradient id="_1358_3-7" data-name="  1358 3" y1="116.84" y2="116.84" xlink:href="#_1358_3"/>
    <linearGradient id="_1119_3-15" data-name="  1119 3" x1="-5856.71" y1="-9717.13" x2="-5848.14" y2="-9700.41" gradientTransform="translate(-8398.66 -7436.05) rotate(162.87)" xlink:href="#_1119_3"/>
    <linearGradient id="_1071_3-7" data-name="  1071 3" x1="-5851.81" y1="-9708.43" x2="-5854.39" y2="-9698.91" gradientTransform="translate(-8398.66 -7436.05) rotate(162.87)" xlink:href="#_1071_3"/>
    <linearGradient id="_28_3-13" data-name="  28 3" x1="-2910.45" y1="-9753.96" x2="-2917.37" y2="-9748.52" gradientTransform="translate(-9119.8 -4298.66) rotate(132.31)" xlink:href="#_28_3"/>
    <linearGradient id="_28_3-14" data-name="  28 3" x1="-2910.79" y1="-9760.63" x2="-2903.85" y2="-9760.63" gradientTransform="translate(-9119.8 -4298.66) rotate(132.31)" xlink:href="#_28_3"/>
    <linearGradient id="_1119_3-16" data-name="  1119 3" x1="-5854.2" y1="-9701.7" x2="-5846.03" y2="-9701.7" gradientTransform="translate(-8398.66 -7436.05) rotate(162.87)" xlink:href="#_1119_3"/>
    <linearGradient id="_1119_3-17" data-name="  1119 3" x1="-5854.44" y1="-9709.84" x2="-5848.95" y2="-9702.44" gradientTransform="translate(-8398.66 -7436.05) rotate(162.87)" xlink:href="#_1119_3"/>
    <linearGradient id="_1358_3-8" data-name="  1358 3" x1="30.64" y1="103.4" x2="51" y2="103.4" xlink:href="#_1358_3"/>
    <linearGradient id="_1119_3-18" data-name="  1119 3" x1="-8551.11" y1="-7492.6" x2="-8544.19" y2="-7479.11" gradientTransform="translate(-5837.33 -9618.29) rotate(-162.37)" xlink:href="#_1119_3"/>
    <linearGradient id="_1071_3-8" data-name="  1071 3" x1="-9687.5" y1="-5696.29" x2="-9695.35" y2="-5690.12" gradientTransform="translate(-3363.37 -10606.42) rotate(-138.09)" xlink:href="#_1071_3"/>
    <linearGradient id="_28_3-15" data-name="  28 3" x1="-9687.85" y1="-5694.77" x2="-9694.75" y2="-5689.35" gradientTransform="translate(-3363.37 -10606.42) rotate(-138.09)" xlink:href="#_28_3"/>
    <linearGradient id="_28_3-16" data-name="  28 3" x1="-8546.61" y1="-7488.74" x2="-8539.23" y2="-7488.74" gradientTransform="translate(-5837.33 -9618.29) rotate(-162.37)" xlink:href="#_28_3"/>
    <linearGradient id="_1119_3-19" data-name="  1119 3" x1="-9694.32" y1="-5690.1" x2="-9683.59" y2="-5690.1" gradientTransform="translate(-3363.37 -10606.42) rotate(-138.09)" xlink:href="#_1119_3"/>
    <linearGradient id="_1119_3-20" data-name="  1119 3" x1="-8549.5" y1="-7483.92" x2="-8550.78" y2="-7486.44" gradientTransform="translate(-5837.33 -9618.29) rotate(-162.37)" xlink:href="#_1119_3"/>
    <linearGradient id="_1358_3-9" data-name="  1358 3" x1="48.93" y1="116.66" x2="37.69" y2="109.64" xlink:href="#_1358_3"/>
    <linearGradient id="_1119_3-21" data-name="  1119 3" x1="-989.93" y1="-8645.97" x2="-988.11" y2="-8633.27" gradientTransform="translate(1512.22 -8461.49) rotate(3.19) scale(1 -1)" xlink:href="#_1119_3"/>
    <linearGradient id="_1071_3-9" data-name="  1071 3" x1="-7008.14" y1="-9019.09" x2="-7016.87" y2="-9012.23" gradientTransform="translate(-7567.31 -8402.86) rotate(176.06)" xlink:href="#_1071_3"/>
    <linearGradient id="_28_3-17" data-name="  28 3" x1="-7008.66" y1="-9017.82" x2="-7016.45" y2="-9011.7" gradientTransform="translate(-7567.31 -8402.86) rotate(176.06)" xlink:href="#_28_3"/>
    <linearGradient id="_28_3-18" data-name="  28 3" x1="-7009.83" y1="-9025.25" x2="-7001.25" y2="-9025.25" gradientTransform="translate(-7567.31 -8402.86) rotate(176.06)" xlink:href="#_28_3"/>
    <linearGradient id="_1358_3-10" data-name="  1358 3" x1="98.73" y1="116.84" x2="110.46" y2="116.84" xlink:href="#_1358_3"/>
    <linearGradient id="_1119_3-22" data-name="  1119 3" x1="3669.43" y1="-6780.33" x2="3678.01" y2="-6763.62" gradientTransform="translate(-1412.27 -7436.05) rotate(17.13) scale(1 -1)" xlink:href="#_1119_3"/>
    <linearGradient id="_1071_3-10" data-name="  1071 3" x1="3674.34" y1="-6771.63" x2="3671.76" y2="-6762.12" gradientTransform="translate(-1412.27 -7436.05) rotate(17.13) scale(1 -1)" xlink:href="#_1071_3"/>
    <linearGradient id="_28_3-19" data-name="  28 3" x1="3799.86" y1="-2382.79" x2="3792.94" y2="-2377.35" gradientTransform="translate(-691.12 -4298.66) rotate(47.69) scale(1 -1)" xlink:href="#_28_3"/>
    <linearGradient id="_28_3-20" data-name="  28 3" x1="3799.52" y1="-2389.46" x2="3806.46" y2="-2389.46" gradientTransform="translate(-691.12 -4298.66) rotate(47.69) scale(1 -1)" xlink:href="#_28_3"/>
    <linearGradient id="_1119_3-23" data-name="  1119 3" x1="3671.95" y1="-6764.9" x2="3680.11" y2="-6764.9" gradientTransform="translate(-1412.27 -7436.05) rotate(17.13) scale(1 -1)" xlink:href="#_1119_3"/>
    <linearGradient id="_1119_3-24" data-name="  1119 3" x1="3671.71" y1="-6773.05" x2="3677.2" y2="-6765.64" gradientTransform="translate(-1412.27 -7436.05) rotate(17.13) scale(1 -1)" xlink:href="#_1119_3"/>
    <linearGradient id="_1358_3-11" data-name="  1358 3" x1="106.44" y1="103.4" x2="126.8" y2="103.4" xlink:href="#_1358_3"/>
    <linearGradient id="_1119_3-25" data-name="  1119 3" x1="949.14" y1="-10512.15" x2="956.06" y2="-10498.66" gradientTransform="translate(-3973.6 -9618.29) rotate(-17.63) scale(1 -1)" xlink:href="#_1119_3"/>
    <linearGradient id="_1071_3-11" data-name="  1071 3" x1="-2269.47" y1="-12354.77" x2="-2277.32" y2="-12348.61" gradientTransform="translate(-6447.55 -10606.42) rotate(-41.91) scale(1 -1)" xlink:href="#_1071_3"/>
    <linearGradient id="_28_3-21" data-name="  28 3" x1="-2269.82" y1="-12353.25" x2="-2276.72" y2="-12347.83" gradientTransform="translate(-6447.55 -10606.42) rotate(-41.91) scale(1 -1)" xlink:href="#_28_3"/>
    <linearGradient id="_28_3-22" data-name="  28 3" x1="953.65" y1="-10508.29" x2="961.03" y2="-10508.29" gradientTransform="translate(-3973.6 -9618.29) rotate(-17.63) scale(1 -1)" xlink:href="#_28_3"/>
    <linearGradient id="_1119_3-26" data-name="  1119 3" x1="-2276.29" y1="-12348.58" x2="-2265.56" y2="-12348.58" gradientTransform="translate(-6447.55 -10606.42) rotate(-41.91) scale(1 -1)" xlink:href="#_1119_3"/>
    <linearGradient id="_1119_3-27" data-name="  1119 3" x1="950.76" y1="-10503.47" x2="949.48" y2="-10505.99" gradientTransform="translate(-3973.6 -9618.29) rotate(-17.63) scale(1 -1)" xlink:href="#_1119_3"/>
    <linearGradient id="_1358_3-12" data-name="  1358 3" x1="110.62" y1="118.89" x2="117.87" y2="106.78" xlink:href="#_1358_3"/>
    <linearGradient id="_1119_3-28" data-name="  1119 3" x1="-10942.41" y1="-9200.16" x2="-10940.59" y2="-9187.46" gradientTransform="translate(-11323.15 -8461.49) rotate(176.81)" xlink:href="#_1119_3"/>
    <linearGradient id="_1071_3-12" data-name="  1071 3" x1="2937.04" y1="-8334.21" x2="2928.31" y2="-8327.35" gradientTransform="translate(-2243.62 -8402.86) rotate(3.94) scale(1 -1)" xlink:href="#_1071_3"/>
    <linearGradient id="_28_3-23" data-name="  28 3" x1="2936.52" y1="-8332.94" x2="2928.73" y2="-8326.82" gradientTransform="translate(-2243.62 -8402.86) rotate(3.94) scale(1 -1)" xlink:href="#_28_3"/>
    <linearGradient id="_28_3-24" data-name="  28 3" x1="2935.35" y1="-8340.38" x2="2943.94" y2="-8340.38" gradientTransform="translate(-2243.62 -8402.86) rotate(3.94) scale(1 -1)" xlink:href="#_28_3"/>
    <linearGradient id="_202_3" data-name="  202 3" x1="78.68" y1="126.73" x2="78.68" y2="34.67" gradientUnits="userSpaceOnUse">
      <stop offset="0" stop-color="#d64b51"/>
      <stop offset="1" stop-color="#f0bb6a"/>
    </linearGradient>
    <linearGradient id="_1112_3" data-name="  1112 3" x1="57.11" y1="115.66" x2="72.34" y2="115.66" gradientUnits="userSpaceOnUse">
      <stop offset="0" stop-color="#b5564a"/>
      <stop offset="1" stop-color="#874721"/>
    </linearGradient>
    <linearGradient id="_1358_3-13" data-name="  1358 3" x1="64.84" y1="120.44" x2="64.84" y2="105.37" xlink:href="#_1358_3"/>
    <linearGradient id="_1119_3-29" data-name="  1119 3" x1="60.98" y1="121.15" x2="65.72" y2="111.05" gradientTransform="matrix(1,0,0,1,0,0)" xlink:href="#_1119_3"/>
    <linearGradient id="_1112_3-2" data-name="  1112 3" x1="85.02" x2="100.25" xlink:href="#_1112_3"/>
    <linearGradient id="_1358_3-14" data-name="  1358 3" x1="92.52" y1="120.44" x2="92.52" y2="105.37" xlink:href="#_1358_3"/>
    <linearGradient id="_1119_3-30" data-name="  1119 3" x1="95.22" y1="120.87" x2="91.55" y2="109.84" gradientTransform="matrix(1,0,0,1,0,0)" xlink:href="#_1119_3"/>
    <linearGradient id="_1112_3-3" data-name="  1112 3" y1="39.43" y2="39.43" xlink:href="#_1112_3"/>
    <linearGradient id="_1358_3-15" data-name="  1358 3" x1="61.69" y1="33.72" x2="65" y2="42.08" xlink:href="#_1358_3"/>
    <linearGradient id="_1119_3-31" data-name="  1119 3" x1="65.31" y1="43.09" x2="58.83" y2="30.12" gradientTransform="matrix(1,0,0,1,0,0)" xlink:href="#_1119_3"/>
    <linearGradient id="_28_3-25" data-name="  28 3" x1="57.97" y1="26.02" x2="62.78" y2="39.91" gradientTransform="matrix(1,0,0,1,0,0)" xlink:href="#_28_3"/>
    <linearGradient id="_1112_3-4" data-name="  1112 3" x1="85.03" y1="39.43" x2="100.26" y2="39.43" xlink:href="#_1112_3"/>
    <linearGradient id="_1358_3-16" data-name="  1358 3" x1="-11747.93" y1="33.72" x2="-11744.61" y2="42.08" gradientTransform="translate(-11652.24) rotate(-180) scale(1 -1)" xlink:href="#_1358_3"/>
    <linearGradient id="_1119_3-32" data-name="  1119 3" x1="-11743.31" y1="45.08" x2="-11749.8" y2="32.11" gradientTransform="translate(-11652.24) rotate(-180) scale(1 -1)" xlink:href="#_1119_3"/>
    <linearGradient id="_28_3-26" data-name="  28 3" x1="-11751.65" y1="26.02" x2="-11746.83" y2="39.91" gradientTransform="translate(-11652.24) rotate(-180) scale(1 -1)" xlink:href="#_28_3"/>
    <linearGradient id="_1112_3-5" data-name="  1112 3" x1="110.33" y1="62.01" x2="121.93" y2="62.01" xlink:href="#_1112_3"/>
    <linearGradient id="_1358_3-17" data-name="  1358 3" x1="-13126.99" y1="-5060.25" x2="-13123.68" y2="-5051.89" gradientTransform="translate(-12746.73 -5627.43) rotate(-135.08) scale(1 -1)" xlink:href="#_1358_3"/>
    <linearGradient id="_1119_3-33" data-name="  1119 3" x1="-13122.38" y1="-5048.89" x2="-13128.86" y2="-5061.86" gradientTransform="translate(-12746.73 -5627.43) rotate(-135.08) scale(1 -1)" xlink:href="#_1119_3"/>
    <linearGradient id="_28_3-27" data-name="  28 3" x1="-13137" y1="-5008" x2="-13132.54" y2="-4995.13" gradientTransform="translate(-12759.47 -5563.42) rotate(-135.58) scale(1 -1)" xlink:href="#_28_3"/>
    <linearGradient id="_1112_3-6" data-name="  1112 3" x1="110.33" y1="93.01" x2="121.93" y2="93.01" xlink:href="#_1112_3"/>
    <linearGradient id="_1358_3-18" data-name="  1358 3" x1="-7139.89" y1="-11064.31" x2="-7136.58" y2="-11055.95" gradientTransform="translate(-12746.73 -2696.52) rotate(135.08)" xlink:href="#_1358_3"/>
    <linearGradient id="_1119_3-34" data-name="  1119 3" x1="-7135.27" y1="-11052.95" x2="-7141.76" y2="-11065.92" gradientTransform="translate(-12746.73 -2696.52) rotate(135.08)" xlink:href="#_1119_3"/>
    <linearGradient id="_28_3-28" data-name="  28 3" x1="-7202.21" y1="-11063.18" x2="-7197.74" y2="-11050.31" gradientTransform="translate(-12759.47 -2760.53) rotate(135.58)" xlink:href="#_28_3"/>
    <linearGradient id="_1112_3-7" data-name="  1112 3" x1="35.25" y1="62.01" x2="46.85" y2="62.01" xlink:href="#_1112_3"/>
    <linearGradient id="_1358_3-19" data-name="  1358 3" x1="-5468.95" y1="2576.16" x2="-5465.64" y2="2584.52" gradientTransform="translate(2089.18 -5627.43) rotate(-44.92)" xlink:href="#_1358_3"/>
    <linearGradient id="_1119_3-35" data-name="  1119 3" x1="-5464.33" y1="2587.52" x2="-5470.82" y2="2574.55" gradientTransform="translate(2089.18 -5627.43) rotate(-44.92)" xlink:href="#_1119_3"/>
    <linearGradient id="_28_3-29" data-name="  28 3" x1="-5413.87" y1="2561.67" x2="-5409.33" y2="2574.77" gradientTransform="translate(2101.92 -5563.42) rotate(-44.42)" xlink:href="#_28_3"/>
    <linearGradient id="_1112_3-8" data-name="  1112 3" x1="35.25" y1="93.01" x2="46.85" y2="93.01" xlink:href="#_1112_3"/>
    <linearGradient id="_1358_3-20" data-name="  1358 3" x1="518.15" y1="-3427.9" x2="521.47" y2="-3419.54" gradientTransform="translate(2089.18 -2696.52) rotate(44.92) scale(1 -1)" xlink:href="#_1358_3"/>
    <linearGradient id="_1119_3-36" data-name="  1119 3" x1="522.77" y1="-3416.54" x2="516.29" y2="-3429.51" gradientTransform="translate(2089.18 -2696.52) rotate(44.92) scale(1 -1)" xlink:href="#_1119_3"/>
    <linearGradient id="_28_3-30" data-name="  28 3" x1="521.05" y1="-3493.49" x2="525.51" y2="-3480.61" gradientTransform="translate(2101.92 -2760.53) rotate(44.42) scale(1 -1)" xlink:href="#_28_3"/>
    <linearGradient id="_1513_3" data-name="  1513 3" x1="79.19" y1="85.97" x2="79.19" y2="120.67" gradientUnits="userSpaceOnUse">
      <stop offset="0" stop-color="#fff"/>
      <stop offset=".44" stop-color="#ed500c"/>
      <stop offset="1" stop-color="#62191c"/>
    </linearGradient>
    <linearGradient id="_1513_3-2" data-name="  1513 3" x1="79.25" y1="85.1" x2="79.25" y2="124.85" xlink:href="#_1513_3"/>
    <linearGradient id="_229_3" data-name="  229 3" x1="79.16" y1="39.55" x2="79.16" y2="56.25" gradientUnits="userSpaceOnUse">
      <stop offset="0" stop-color="#e8c497"/>
      <stop offset="1" stop-color="#000"/>
    </linearGradient>
    <linearGradient id="_1511_3" data-name="  1511 3" x1="78.68" y1="108.61" x2="78.68" y2="46.35" gradientUnits="userSpaceOnUse">
      <stop offset="0" stop-color="#cf4332"/>
      <stop offset=".49" stop-color="#c7682c"/>
      <stop offset="1" stop-color="#874721"/>
    </linearGradient>
    <linearGradient id="_28_3-31" data-name="  28 3" x1="78.68" y1="118.18" x2="78.68" y2="99.69" gradientTransform="matrix(1,0,0,1,0,0)" xlink:href="#_28_3"/>
    <linearGradient id="linear-gradient" x1="78.68" y1="110.15" x2="78.68" y2="95.77" gradientUnits="userSpaceOnUse">
      <stop offset="0" stop-color="#fff"/>
      <stop offset="1" stop-color="#adffe3"/>
    </linearGradient>
    <linearGradient id="_1513_3-3" data-name="  1513 3" x1="78.41" y1="68.1" x2="78.41" y2="45.89" xlink:href="#_1513_3"/>
    <radialGradient id="_1379_3" data-name="  1379 3" cx="-812.73" cy="-1199.54" fx="-812.73" fy="-1199.54" r="5.18" gradientTransform="translate(840.51 1403.79) rotate(14.79) scale(1.33 .88)" gradientUnits="userSpaceOnUse">
      <stop offset="0" stop-color="#d09b0a"/>
      <stop offset=".1" stop-color="#c69309"/>
      <stop offset=".26" stop-color="#ac8008"/>
      <stop offset=".47" stop-color="#836106"/>
      <stop offset=".72" stop-color="#493603"/>
      <stop offset="1" stop-color="#000"/>
      <stop offset="1" stop-color="#000"/>
    </radialGradient>
    <linearGradient id="_1119_3-37" data-name="  1119 3" x1="121.48" y1="84.63" x2="121.48" y2="64.31" gradientTransform="matrix(1,0,0,1,0,0)" xlink:href="#_1119_3"/>
    <linearGradient id="_28_3-32" data-name="  28 3" x1="121.47" y1="79.37" x2="121.47" y2="99.28" gradientTransform="matrix(1,0,0,1,0,0)" xlink:href="#_28_3"/>
    <linearGradient id="_28_3-33" data-name="  28 3" x1="35.81" y1="79.38" x2="35.81" y2="99.08" gradientTransform="matrix(1,0,0,1,0,0)" xlink:href="#_28_3"/>
    <linearGradient id="_1119_3-38" data-name="  1119 3" x1="35.81" y1="84.63" x2="35.81" y2="64.31" gradientTransform="matrix(1,0,0,1,0,0)" xlink:href="#_1119_3"/>
    <linearGradient id="_1501_3" data-name="  1501 3" x1="67.37" y1="131.14" x2="67.37" y2="117.04" gradientUnits="userSpaceOnUse">
      <stop offset="0" stop-color="#b8554a"/>
      <stop offset="1" stop-color="#3b1906"/>
    </linearGradient>
    <linearGradient id="_1501_3-2" data-name="  1501 3" x1="89.99" y1="131.14" x2="89.99" y2="117.04" xlink:href="#_1501_3"/>
  </defs>
  <g class="cls-112">
    <g id="frame">
      <g id="halo_back" data-name="halo back">
        <circle class="cls-89" cx="79.25" cy="77.53" r="35.27"/>
      </g>
      <g id="_2" data-name="2">
        <g>
          <g>
            <g>
              <g>
                <path class="cls-104" d="M46.98,38.54c0,.1,0,.21.02.32,0,.01,0,.03,0,.04.04.3.12.62.23.97,0,0,0,0,0,.01.75,2.22,2.96,5.3,4.3,7.04.01.02.03.04.04.06.32.42.59.75.77.97,0,0,0,0,0,0,.15.18.23.29.23.29h.46s.13,0,.13,0h0s1.56,0,1.56,0c2.08-2.78,3.95-7.81,3.98-9.8,0-.21-.01-.38-.05-.52-.1-.33-.45-1.06-.94-1.98-1.63-3.04-4.8-8.19-5.48-8.12-.43.05-2.72,3.86-4.13,7.09-.64,1.47-1.11,2.82-1.12,3.63Z"/>
                <path class="cls-49" d="M46.98,38.54c0,.1,0,.21.02.32,0,.01,0,.03,0,.04.04.3.12.62.23.97,0,0,0,0,0,.01.75,2.22,2.96,5.3,4.3,7.04.01.02.03.04.04.06.32.42.59.75.77.97,0,0,0,0,0,0,.15.18.23.29.23.29h.46s.13,0,.13,0h0s1.56,0,1.56,0c2.08-2.78,3.95-7.81,3.98-9.8-.73,2.4-2.29,3.34-3.84,3.62-.65.12-1.3.12-1.89.07,0,0-.02,0-.03,0-.11-.01-.22-.02-.32-.04-.08-.01-.17-.02-.25-.04-1.09-.17-1.86-.49-1.86-.49,0,0-1.83-1.22-2.21-2.84-.15-.66.02-2.08.63-3.97.62-1.93,1.68-4.34,3.31-6.93-.43.05-2.72,3.86-4.13,7.09-.64,1.47-1.11,2.82-1.12,3.63Z"/>
                <path class="cls-87" d="M54.09,38.16c.98,3.87-.91,10.08-.91,10.08,0,0,.17-5.71-.64-8.63-.81-2.92,1.25-2.65,1.55-1.45Z"/>
                <path class="cls-12" d="M52.29,38.42c1.03,3.46.88,9.82.88,9.82l-.88-9.82Z"/>
                <path class="cls-85" d="M57.45,35.45c-1.4,1.01-4.59-6.86-3.62-5.87.75.76,3.62,5.87,3.62,5.87Z"/>
                <path class="cls-57" d="M47,38.86s0,.03,0,.04c.02.28.1.61.23.97,0,0,0,0,0,.01.75,2.1,3.05,5.37,4.3,7.04.01.02.03.04.04.06.4.54.69.89.77.97,0,0,0,0,0,0,.79.8.09-.51-2.76-5.66-1.25-2.26-2.64-4.21-2.59-3.43Z"/>
                <path class="cls-39" d="M51.53,46.91s.03.04.04.06c.4.54.69.89.77.97,0,0,.28-3.82.03-5.9-.42-3.42-.94-6.43-1.67-6.85-.66-.38-1.29-.46-1.77-.44-.5.02-.83.15-.83.15-.64,1.47-1.11,2.82-1.12,3.63,0,.1,0,.21.02.32,0,.01,0,.03,0,.04.02.28.1.61.23.97,0,0,0,0,0,.01.75,2.22,2.96,5.3,4.3,7.04Z"/>
              </g>
              <g>
                <path class="cls-96" d="M41.28,57.32c.11,0,.24,0,.36-.02,0,0,0,0,.01,0,.27-.03.56-.1.88-.2h.02c2.2-.71,5.31-2.9,7.07-4.23.02-.02.04-.03.06-.05.43-.33.78-.6,1.01-.78,0,0,0,0,0,0,.18-.15.28-.23.28-.23v-.53s0-.07,0-.07v-1.55c-2.75-2.09-7.74-3.99-9.73-4.03-.21,0-.38.01-.52.05-.33.09-1.06.44-1.98.92h0c-.67.35-1.44.78-2.23,1.23-2.82,1.62-5.95,3.64-5.89,4.18.07.62,8.06,5.24,10.65,5.31Z"/>
                <path class="cls-34" d="M41.28,57.32c.11,0,.24,0,.36-.02,0,0,0,0,.01,0,.27-.03.56-.1.88-.2h.02c2.2-.71,5.31-2.9,7.07-4.23.02-.02.04-.03.06-.05.43-.33.78-.6,1.01-.78,0,0,0,0,0,0,.18-.15.28-.23.28-.23v-.53s0-.07,0-.07v-1.55c-2.75-2.09-7.74-3.99-9.73-4.03,2.39.75,3.31,2.3,3.58,3.86.08.49.11.97.08,1.43,0,.16-.02.31-.03.46,0,0,0,.02,0,.03-.01.11-.02.22-.04.32-.17,1.21-.54,2.1-.54,2.1,0,0-1.23,1.81-2.85,2.18-1.34.3-5.75-.76-10.83-3.99.07.62,8.06,5.24,10.65,5.31Z"/>
                <path class="cls-50" d="M40.05,50.91c3.8-3.41,10.93.3,10.93.3,0,0-5.69-.21-8.6.58s-2.78-.47-2.33-.88Z"/>
                <path class="cls-32" d="M41.2,52.02c3.45-1,9.79-.81,9.79-.81l-9.79.81Z"/>
                <path class="cls-78" d="M32.4,50.43c.68.61,3.78-.55,5.51-1.82.88-.64,1.4-1.31,1.06-1.78l-.21-.23h0s-2.23,1.23-2.23,1.23l-4.13,2.59Z"/>
                <path class="cls-51" d="M45.04,54.75c5.15-2.81,6.46-3.49,5.66-2.71-.33.32-6.7,5.15-9.1,5.27-.78.04,1.18-1.33,3.44-2.56Z"/>
                <path class="cls-68" d="M36.53,47.83s.08.03.11.04c.45.17.87.44,1.26.74,1.26.96,2.15,2.3,2.15,2.3,0,0,1.18-.75,3.95-.7,3.67.07,4.8.7,6.56.99,0,0,0,0,0,0,0,0,.01,0,.02,0,.06,0,.11.02.17.03,0,0,0,0,0,0,.08.01.16.03.24.05v-.07s.01-1.55.01-1.55c-2.76-2.09-7.75-3.99-9.74-4.03-.21,0-.38.01-.52.05-.33.09-1.06.44-1.98.92h0c-.67.35-1.44.78-2.23,1.23Z"/>
              </g>
              <g>
                <path class="cls-105" d="M38.82,46.66c2.21,2.4,12.09,3.53,12.09,3.53l1.76-1.68c-.48-3.88-2.86-9.42-4.4-11.06-.16-.17-.31-.3-.45-.38-1.47-.85-12.43-3.99-13.08-3.21-.45.54,2.09,10.66,4.07,12.8Z"/>
                <path class="cls-10" d="M38.82,46.66c2.21,2.4,12.09,3.53,12.09,3.53l1.76-1.68c-.48-3.88-2.86-9.42-4.4-11.06,3.04,6.04-4.24,8.92-4.24,8.92,0,0-1.55.45-3.78-1.07-1.28-.87-4.13-4.78-5.51-11.45-.45.54,2.09,10.66,4.07,12.8Z"/>
                <path class="cls-38" d="M43.02,41.14c5.1,1.39,8.38,8.59,8.38,8.59,0,0-4.3-4.77-7.24-6.52s-1.81-2.25-1.14-2.07Z"/>
                <path class="cls-81" d="M43.04,42.43c3.53,2.01,8.35,7.29,8.35,7.29l-8.35-7.29Z"/>
                <path class="cls-44" d="M45.7,36.25c-.36,1.91-9.82-2.47-8.29-2.21,2.97.52,8.29,2.21,8.29,2.21Z"/>
              </g>
            </g>
            <g>
              <g>
                <path class="cls-98" d="M110.46,38.54c0,.1,0,.21-.02.32,0,.01,0,.03,0,.04-.04.3-.12.62-.23.97,0,0,0,0,0,.01-.75,2.22-2.96,5.3-4.3,7.04-.01.02-.03.04-.04.06-.32.42-.59.75-.77.97,0,0,0,0,0,0-.15.18-.23.29-.23.29h-.46s-.13,0-.13,0h0s-1.56,0-1.56,0c-2.08-2.78-3.95-7.81-3.98-9.8,0-.21.01-.38.05-.52.1-.33.45-1.06.94-1.98,1.63-3.04,4.8-8.19,5.48-8.12.43.05,2.72,3.86,4.13,7.09.64,1.47,1.11,2.82,1.12,3.63Z"/>
                <path class="cls-64" d="M110.46,38.54c0,.1,0,.21-.02.32,0,.01,0,.03,0,.04-.04.3-.12.62-.23.97,0,0,0,0,0,.01-.75,2.22-2.96,5.3-4.3,7.04-.01.02-.03.04-.04.06-.32.42-.59.75-.77.97,0,0,0,0,0,0-.15.18-.23.29-.23.29h-.46s-.13,0-.13,0h0s-1.56,0-1.56,0c-2.08-2.78-3.95-7.81-3.98-9.8.73,2.4,2.29,3.34,3.84,3.62.65.12,1.3.12,1.89.07,0,0,.02,0,.03,0,.11-.01.22-.02.32-.04.08-.01.17-.02.25-.04,1.09-.17,1.86-.49,1.86-.49,0,0,1.83-1.22,2.21-2.84.15-.66-.02-2.08-.63-3.97-.62-1.93-1.68-4.34-3.31-6.93.43.05,2.72,3.86,4.13,7.09.64,1.47,1.11,2.82,1.12,3.63Z"/>
                <path class="cls-5" d="M103.35,38.16c-.98,3.87.91,10.08.91,10.08,0,0-.17-5.71.64-8.63.81-2.92-1.25-2.65-1.55-1.45Z"/>
                <path class="cls-36" d="M105.15,38.42c-1.03,3.46-.88,9.82-.88,9.82l.88-9.82Z"/>
                <path class="cls-69" d="M99.99,35.45c1.4,1.01,4.59-6.86,3.62-5.87-.75.76-3.62,5.87-3.62,5.87Z"/>
                <path class="cls-77" d="M110.44,38.86s0,.03,0,.04c-.02.28-.1.61-.23.97,0,0,0,0,0,.01-.75,2.1-3.05,5.37-4.3,7.04-.01.02-.03.04-.04.06-.4.54-.69.89-.77.97,0,0,0,0,0,0-.79.8-.09-.51,2.76-5.66,1.25-2.26,2.64-4.21,2.59-3.43Z"/>
                <path class="cls-82" d="M105.91,46.91s-.03.04-.04.06c-.4.54-.69.89-.77.97,0,0-.28-3.82-.03-5.9.42-3.42.94-6.43,1.67-6.85.66-.38,1.29-.46,1.77-.44.5.02.83.15.83.15.64,1.47,1.11,2.82,1.12,3.63,0,.1,0,.21-.02.32,0,.01,0,.03,0,.04-.02.28-.1.61-.23.97,0,0,0,0,0,.01-.75,2.22-2.96,5.3-4.3,7.04Z"/>
              </g>
              <g>
                <path class="cls-116" d="M116.16,57.32c-.11,0-.24,0-.36-.02,0,0,0,0-.01,0-.27-.03-.56-.1-.88-.2h-.02c-2.2-.71-5.31-2.9-7.07-4.23-.02-.02-.04-.03-.06-.05-.43-.33-.78-.6-1.01-.78,0,0,0,0,0,0-.18-.15-.28-.23-.28-.23v-.53s0-.07,0-.07v-1.55c2.75-2.09,7.74-3.99,9.73-4.03.21,0,.38.01.52.05.33.09,1.06.44,1.98.92h0c.67.35,1.44.78,2.23,1.23,2.82,1.62,5.95,3.64,5.89,4.18-.07.62-8.06,5.24-10.65,5.31Z"/>
                <path class="cls-20" d="M116.16,57.32c-.11,0-.24,0-.36-.02,0,0,0,0-.01,0-.27-.03-.56-.1-.88-.2h-.02c-2.2-.71-5.31-2.9-7.07-4.23-.02-.02-.04-.03-.06-.05-.43-.33-.78-.6-1.01-.78,0,0,0,0,0,0-.18-.15-.28-.23-.28-.23v-.53s0-.07,0-.07v-1.55c2.75-2.09,7.74-3.99,9.73-4.03-2.39.75-3.31,2.3-3.58,3.86-.08.49-.11.97-.08,1.43,0,.16.02.31.03.46,0,0,0,.02,0,.03.01.11.02.22.04.32.17,1.21.54,2.1.54,2.1,0,0,1.23,1.81,2.85,2.18,1.34.3,5.75-.76,10.83-3.99-.07.62-8.06,5.24-10.65,5.31Z"/>
                <path class="cls-1" d="M117.39,50.91c-3.8-3.41-10.93.3-10.93.3,0,0,5.69-.21,8.6.58s2.78-.47,2.33-.88Z"/>
                <path class="cls-3" d="M116.24,52.02c-3.45-1-9.79-.81-9.79-.81l9.79.81Z"/>
                <path class="cls-74" d="M125.04,50.43c-.68.61-3.78-.55-5.51-1.82-.88-.64-1.4-1.31-1.06-1.78l.21-.23h0s2.23,1.23,2.23,1.23l4.13,2.59Z"/>
                <path class="cls-11" d="M112.4,54.75c-5.15-2.81-6.46-3.49-5.66-2.71.33.32,6.7,5.15,9.1,5.27.78.04-1.18-1.33-3.44-2.56Z"/>
                <path class="cls-13" d="M120.91,47.83s-.08.03-.11.04c-.45.17-.87.44-1.26.74-1.26.96-2.15,2.3-2.15,2.3,0,0-1.18-.75-3.95-.7-3.67.07-4.8.7-6.56.99,0,0,0,0,0,0,0,0-.01,0-.02,0-.06,0-.11.02-.17.03,0,0,0,0,0,0-.08.01-.16.03-.24.05v-.07s-.01-1.55-.01-1.55c2.76-2.09,7.75-3.99,9.74-4.03.21,0,.38.01.52.05.33.09,1.06.44,1.98.92h0c.67.35,1.44.78,2.23,1.23Z"/>
              </g>
              <g>
                <path class="cls-109" d="M118.62,46.66c-2.21,2.4-12.09,3.53-12.09,3.53l-1.76-1.68c.48-3.88,2.86-9.42,4.4-11.06.16-.17.31-.3.45-.38,1.47-.85,12.43-3.99,13.08-3.21.45.54-2.09,10.66-4.07,12.8Z"/>
                <path class="cls-15" d="M118.62,46.66c-2.21,2.4-12.09,3.53-12.09,3.53l-1.76-1.68c.48-3.88,2.86-9.42,4.4-11.06-3.04,6.04,4.24,8.92,4.24,8.92,0,0,1.55.45,3.78-1.07,1.28-.87,4.13-4.78,5.51-11.45.45.54-2.09,10.66-4.07,12.8Z"/>
                <path class="cls-16" d="M114.42,41.14c-5.1,1.39-8.38,8.59-8.38,8.59,0,0,4.3-4.77,7.24-6.52s1.81-2.25,1.14-2.07Z"/>
                <path class="cls-28" d="M114.4,42.43c-3.53,2.01-8.35,7.29-8.35,7.29l8.35-7.29Z"/>
                <path class="cls-41" d="M111.74,36.25c.36,1.91,9.82-2.47,8.29-2.21-2.97.52-8.29,2.21-8.29,2.21Z"/>
              </g>
            </g>
            <g>
              <g>
                <path class="cls-95" d="M46.98,116.33c0-.1,0-.21.02-.32,0-.01,0-.03,0-.04.04-.3.12-.62.23-.97,0,0,0,0,0-.01.75-2.22,2.96-5.3,4.3-7.04.01-.02.03-.04.04-.06.32-.42.59-.75.77-.97,0,0,0,0,0,0,.15-.18.23-.29.23-.29h.46s.13,0,.13,0h0s1.56,0,1.56,0c2.08,2.78,3.95,7.81,3.98,9.8,0,.21-.01.38-.05.52-.1.33-.45,1.06-.94,1.98-1.63,3.04-4.8,8.19-5.48,8.12-.43-.05-2.72-3.86-4.13-7.09-.64-1.47-1.11-2.82-1.12-3.63Z"/>
                <path class="cls-62" d="M46.98,116.33c0-.1,0-.21.02-.32,0-.01,0-.03,0-.04.04-.3.12-.62.23-.97,0,0,0,0,0-.01.75-2.22,2.96-5.3,4.3-7.04.01-.02.03-.04.04-.06.32-.42.59-.75.77-.97,0,0,0,0,0,0,.15-.18.23-.29.23-.29h.46s.13,0,.13,0h0s1.56,0,1.56,0c2.08,2.78,3.95,7.81,3.98,9.8-.73-2.4-2.29-3.34-3.84-3.62-.65-.12-1.3-.12-1.89-.07,0,0-.02,0-.03,0-.11.01-.22.02-.32.04-.08.01-.17.02-.25.04-1.09.17-1.86.49-1.86.49,0,0-1.83,1.22-2.21,2.84-.15.66.02,2.08.63,3.97.62,1.93,1.68,4.34,3.31,6.93-.43-.05-2.72-3.86-4.13-7.09-.64-1.47-1.11-2.82-1.12-3.63Z"/>
                <path class="cls-14" d="M54.09,116.71c.98-3.87-.91-10.08-.91-10.08,0,0,.17,5.71-.64,8.63-.81,2.92,1.25,2.65,1.55,1.45Z"/>
                <path class="cls-63" d="M52.29,116.45c1.03-3.46.88-9.82.88-9.82l-.88,9.82Z"/>
                <path class="cls-40" d="M57.45,119.42c-1.4-1.01-4.59,6.86-3.62,5.87.75-.76,3.62-5.87,3.62-5.87Z"/>
                <path class="cls-47" d="M47,116.01s0-.03,0-.04c.02-.28.1-.61.23-.97,0,0,0,0,0-.01.75-2.1,3.05-5.37,4.3-7.04.01-.02.03-.04.04-.06.4-.54.69-.89.77-.97,0,0,0,0,0,0,.79-.8.09.51-2.76,5.66-1.25,2.26-2.64,4.21-2.59,3.43Z"/>
                <path class="cls-53" d="M51.53,107.96s.03-.04.04-.06c.4-.54.69-.89.77-.97,0,0,.28,3.82.03,5.9-.42,3.42-.94,6.43-1.67,6.85-.66.38-1.29.46-1.77.44-.5-.02-.83-.15-.83-.15-.64-1.47-1.11-2.82-1.12-3.63,0-.1,0-.21.02-.32,0-.01,0-.03,0-.04.02-.28.1-.61.23-.97,0,0,0,0,0-.01.75-2.22,2.96-5.3,4.3-7.04Z"/>
              </g>
              <g>
                <path class="cls-90" d="M41.28,97.55c.11,0,.24,0,.36.02,0,0,0,0,.01,0,.27.03.56.1.88.2h.02c2.2.71,5.31,2.9,7.07,4.23.02.02.04.03.06.05.43.33.78.6,1.01.78,0,0,0,0,0,0,.18.15.28.23.28.23v.53s0,.07,0,.07v1.55c-2.75,2.09-7.74,3.99-9.73,4.03-.21,0-.38-.01-.52-.05-.33-.09-1.06-.44-1.98-.92h0c-.67-.35-1.44-.78-2.23-1.23-2.82-1.62-5.95-3.64-5.89-4.18.07-.62,8.06-5.24,10.65-5.31Z"/>
                <path class="cls-4" d="M41.28,97.55c.11,0,.24,0,.36.02,0,0,0,0,.01,0,.27.03.56.1.88.2h.02c2.2.71,5.31,2.9,7.07,4.23.02.02.04.03.06.05.43.33.78.6,1.01.78,0,0,0,0,0,0,.18.15.28.23.28.23v.53s0,.07,0,.07v1.55c-2.75,2.09-7.74,3.99-9.73,4.03,2.39-.75,3.31-2.3,3.58-3.86.08-.49.11-.97.08-1.43,0-.16-.02-.31-.03-.46,0,0,0-.02,0-.03-.01-.11-.02-.22-.04-.32-.17-1.21-.54-2.1-.54-2.1,0,0-1.23-1.81-2.85-2.18-1.34-.3-5.75.76-10.83,3.99.07-.62,8.06-5.24,10.65-5.31Z"/>
                <path class="cls-9" d="M40.05,103.96c3.8,3.41,10.93-.3,10.93-.3,0,0-5.69.21-8.6-.58s-2.78.47-2.33.88Z"/>
                <path class="cls-17" d="M41.2,102.85c3.45,1,9.79.81,9.79.81l-9.79-.81Z"/>
                <path class="cls-75" d="M32.4,104.44c.68-.61,3.78.55,5.51,1.82.88.64,1.4,1.31,1.06,1.78l-.21.23h0s-2.23-1.23-2.23-1.23l-4.13-2.59Z"/>
                <path class="cls-83" d="M45.04,100.12c5.15,2.81,6.46,3.49,5.66,2.71-.33-.32-6.7-5.15-9.1-5.27-.78-.04,1.18,1.33,3.44,2.56Z"/>
                <path class="cls-55" d="M36.53,107.04s.08-.03.11-.04c.45-.17.87-.44,1.26-.74,1.26-.96,2.15-2.3,2.15-2.3,0,0,1.18.75,3.95.7,3.67-.07,4.8-.7,6.56-.99,0,0,0,0,0,0,0,0,.01,0,.02,0,.06,0,.11-.02.17-.03,0,0,0,0,0,0,.08-.01.16-.03.24-.05v.07s.01,1.55.01,1.55c-2.76,2.09-7.75,3.99-9.74,4.03-.21,0-.38-.01-.52-.05-.33-.09-1.06-.44-1.98-.92h0c-.67-.35-1.44-.78-2.23-1.23Z"/>
              </g>
              <g>
                <path class="cls-119" d="M38.82,108.21c2.21-2.4,12.09-3.53,12.09-3.53l1.76,1.68c-.48,3.88-2.86,9.42-4.4,11.06-.16.17-.31.3-.45.38-1.47.85-12.43,3.99-13.08,3.21-.45-.54,2.09-10.66,4.07-12.8Z"/>
                <path class="cls-6" d="M38.82,108.21c2.21-2.4,12.09-3.53,12.09-3.53l1.76,1.68c-.48,3.88-2.86,9.42-4.4,11.06,3.04-6.04-4.24-8.92-4.24-8.92,0,0-1.55-.45-3.78,1.07-1.28.87-4.13,4.78-5.51,11.45-.45-.54,2.09-10.66,4.07-12.8Z"/>
                <path class="cls-26" d="M43.02,113.73c5.1-1.39,8.38-8.59,8.38-8.59,0,0-4.3,4.77-7.24,6.52s-1.81,2.25-1.14,2.07Z"/>
                <path class="cls-43" d="M43.04,112.44c3.53-2.01,8.35-7.29,8.35-7.29l-8.35,7.29Z"/>
                <path class="cls-2" d="M45.7,118.62c-.36-1.91-9.82,2.47-8.29,2.21,2.97-.52,8.29-2.21,8.29-2.21Z"/>
              </g>
            </g>
            <g>
              <g>
                <path class="cls-92" d="M110.46,116.33c0-.1,0-.21-.02-.32,0-.01,0-.03,0-.04-.04-.3-.12-.62-.23-.97,0,0,0,0,0-.01-.75-2.22-2.96-5.3-4.3-7.04-.01-.02-.03-.04-.04-.06-.32-.42-.59-.75-.77-.97,0,0,0,0,0,0-.15-.18-.23-.29-.23-.29h-.46s-.13,0-.13,0h0s-1.56,0-1.56,0c-2.08,2.78-3.95,7.81-3.98,9.8,0,.21.01.38.05.52.1.33.45,1.06.94,1.98,1.63,3.04,4.8,8.19,5.48,8.12.43-.05,2.72-3.86,4.13-7.09.64-1.47,1.11-2.82,1.12-3.63Z"/>
                <path class="cls-72" d="M110.46,116.33c0-.1,0-.21-.02-.32,0-.01,0-.03,0-.04-.04-.3-.12-.62-.23-.97,0,0,0,0,0-.01-.75-2.22-2.96-5.3-4.3-7.04-.01-.02-.03-.04-.04-.06-.32-.42-.59-.75-.77-.97,0,0,0,0,0,0-.15-.18-.23-.29-.23-.29h-.46s-.13,0-.13,0h0s-1.56,0-1.56,0c-2.08,2.78-3.95,7.81-3.98,9.8.73-2.4,2.29-3.34,3.84-3.62.65-.12,1.3-.12,1.89-.07,0,0,.02,0,.03,0,.11.01.22.02.32.04.08.01.17.02.25.04,1.09.17,1.86.49,1.86.49,0,0,1.83,1.22,2.21,2.84.15.66-.02,2.08-.63,3.97-.62,1.93-1.68,4.34-3.31,6.93.43-.05,2.72-3.86,4.13-7.09.64-1.47,1.11-2.82,1.12-3.63Z"/>
                <path class="cls-86" d="M103.35,116.71c-.98-3.87.91-10.08.91-10.08,0,0-.17,5.71.64,8.63.81,2.92-1.25,2.65-1.55,1.45Z"/>
                <path class="cls-33" d="M105.15,116.45c-1.03-3.46-.88-9.82-.88-9.82l.88,9.82Z"/>
                <path class="cls-23" d="M99.99,119.42c1.4-1.01,4.59,6.86,3.62,5.87-.75-.76-3.62-5.87-3.62-5.87Z"/>
                <path class="cls-65" d="M110.44,116.01s0-.03,0-.04c-.02-.28-.1-.61-.23-.97,0,0,0,0,0-.01-.75-2.1-3.05-5.37-4.3-7.04-.01-.02-.03-.04-.04-.06-.4-.54-.69-.89-.77-.97,0,0,0,0,0,0-.79-.8-.09.51,2.76,5.66,1.25,2.26,2.64,4.21,2.59,3.43Z"/>
                <path class="cls-18" d="M105.91,107.96s-.03-.04-.04-.06c-.4-.54-.69-.89-.77-.97,0,0-.28,3.82-.03,5.9.42,3.42.94,6.43,1.67,6.85.66.38,1.29.46,1.77.44.5-.02.83-.15.83-.15.64-1.47,1.11-2.82,1.12-3.63,0-.1,0-.21-.02-.32,0-.01,0-.03,0-.04-.02-.28-.1-.61-.23-.97,0,0,0,0,0-.01-.75-2.22-2.96-5.3-4.3-7.04Z"/>
              </g>
              <g>
                <path class="cls-101" d="M116.16,97.55c-.11,0-.24,0-.36.02,0,0,0,0-.01,0-.27.03-.56.1-.88.2h-.02c-2.2.71-5.31,2.9-7.07,4.23-.02.02-.04.03-.06.05-.43.33-.78.6-1.01.78,0,0,0,0,0,0-.18.15-.28.23-.28.23v.53s0,.07,0,.07v1.55c2.75,2.09,7.74,3.99,9.73,4.03.21,0,.38-.01.52-.05.33-.09,1.06-.44,1.98-.92h0c.67-.35,1.44-.78,2.23-1.23,2.82-1.62,5.95-3.64,5.89-4.18-.07-.62-8.06-5.24-10.65-5.31Z"/>
                <path class="cls-56" d="M116.16,97.55c-.11,0-.24,0-.36.02,0,0,0,0-.01,0-.27.03-.56.1-.88.2h-.02c-2.2.71-5.31,2.9-7.07,4.23-.02.02-.04.03-.06.05-.43.33-.78.6-1.01.78,0,0,0,0,0,0-.18.15-.28.23-.28.23v.53s0,.07,0,.07v1.55c2.75,2.09,7.74,3.99,9.73,4.03-2.39-.75-3.31-2.3-3.58-3.86-.08-.49-.11-.97-.08-1.43,0-.16.02-.31.03-.46,0,0,0-.02,0-.03.01-.11.02-.22.04-.32.17-1.21.54-2.1.54-2.1,0,0,1.23-1.81,2.85-2.18,1.34-.3,5.75.76,10.83,3.99-.07-.62-8.06-5.24-10.65-5.31Z"/>
                <path class="cls-59" d="M117.39,103.96c-3.8,3.41-10.93-.3-10.93-.3,0,0,5.69.21,8.6-.58s2.78.47,2.33.88Z"/>
                <path class="cls-70" d="M116.24,102.85c-3.45,1-9.79.81-9.79.81l9.79-.81Z"/>
                <path class="cls-8" d="M125.04,104.44c-.68-.61-3.78.55-5.51,1.82-.88.64-1.4,1.31-1.06,1.78l.21.23h0s2.23-1.23,2.23-1.23l4.13-2.59Z"/>
                <path class="cls-61" d="M112.4,100.12c-5.15,2.81-6.46,3.49-5.66,2.71.33-.32,6.7-5.15,9.1-5.27.78-.04-1.18,1.33-3.44,2.56Z"/>
                <path class="cls-67" d="M120.91,107.04s-.08-.03-.11-.04c-.45-.17-.87-.44-1.26-.74-1.26-.96-2.15-2.3-2.15-2.3,0,0-1.18.75-3.95.7-3.67-.07-4.8-.7-6.56-.99,0,0,0,0,0,0,0,0-.01,0-.02,0-.06,0-.11-.02-.17-.03,0,0,0,0,0,0-.08-.01-.16-.03-.24-.05v.07s-.01,1.55-.01,1.55c2.76,2.09,7.75,3.99,9.74,4.03.21,0,.38-.01.52-.05.33-.09,1.06-.44,1.98-.92h0c.67-.35,1.44-.78,2.23-1.23Z"/>
              </g>
              <g>
                <path class="cls-124" d="M118.62,108.21c-2.21-2.4-12.09-3.53-12.09-3.53l-1.76,1.68c.48,3.88,2.86,9.42,4.4,11.06.16.17.31.3.45.38,1.47.85,12.43,3.99,13.08,3.21.45-.54-2.09-10.66-4.07-12.8Z"/>
                <path class="cls-46" d="M118.62,108.21c-2.21-2.4-12.09-3.53-12.09-3.53l-1.76,1.68c.48,3.88,2.86,9.42,4.4,11.06-3.04-6.04,4.24-8.92,4.24-8.92,0,0,1.55-.45,3.78,1.07,1.28.87,4.13,4.78,5.51,11.45.45-.54-2.09-10.66-4.07-12.8Z"/>
                <path class="cls-73" d="M114.42,113.73c-5.1-1.39-8.38-8.59-8.38-8.59,0,0,4.3,4.77,7.24,6.52s1.81,2.25,1.14,2.07Z"/>
                <path class="cls-27" d="M114.4,112.44c-3.53-2.01-8.35-7.29-8.35-7.29l8.35,7.29Z"/>
                <path class="cls-48" d="M111.74,118.62c.36-1.91,9.82,2.47,8.29,2.21-2.97-.52-8.29-2.21-8.29-2.21Z"/>
              </g>
            </g>
          </g>
          <g>
            <path class="cls-102" d="M125.32,95.61c.41-.97-5.24-11.46-7.57-15.73,0-.07.16-2.35,0-4.71,2.33-4.26,7.6-14.64,7.57-15.73,0-.1.08-1.79,0-1.98-.4-.95-12.35-4.32-17.11-5.63-1.36-1.56-2.83-3.01-4.42-4.33-1.19-4.36-4.78-17.19-5.77-17.6-1.18-.5-16.56,8.02-17.47,8.52-.62-.03-1.25-.04-1.88-.04s-1.26.01-1.88.04c-.91-.5-16.29-9.02-17.47-8.52-.98.41-4.57,13.25-5.77,17.6-1.58,1.33-3.06,2.78-4.42,4.33-4.76,1.31-16.71,4.68-17.11,5.63-.08.2,0,1.88,0,1.98-.03,1.41,5.24,11.46,7.57,15.73-.25,2.34,0,4.64,0,4.71-2.33,4.26-7.97,14.76-7.57,15.73.04.09-.08,1.79,0,1.98.4.95,12.35,4.32,17.11,5.63,1.36,1.56,2.83,3.01,4.42,4.33,1.19,4.36,4.78,17.19,5.77,17.6,1.18.5,16.56-8.02,17.47-8.52.62.03,1.25.04,1.88.04s1.26-.01,1.88-.04c.91.5,16.29,9.02,17.47,8.52.98-.41,4.57-13.25,5.77-17.6,1.58-1.33,3.06-2.77,4.42-4.33,4.76-1.31,16.71-4.68,17.11-5.63.08-.2-.04-1.89,0-1.98ZM108.19,77.53c0,16.29-13.22,29.5-29.51,29.5s-29.51-13.21-29.51-29.5c0-16.29,13.22-29.5,29.51-29.5s29.51,13.21,29.51,29.5Z"/>
            <g>
              <path class="cls-110" d="M71.92,116.12c.14.02.28.05.42.07-1.18.84-2.41,1.56-3.62,2.16,0,0-.01,0-.02,0-.69.34-1.37.64-2.02.91-.02,0-.04.02-.06.02-3.13,1.28-5.64,1.77-5.78,1.8,0,0,0,0,0,0,0,0,0,0,0,0-1.62-3.14-2.63-6.28-3.25-8.73,0,0,0-.02,0-.03,0-.03-.02-.06-.02-.1-.18-.74-.33-1.41-.45-2,.1.07.21.14.31.2.17.11.34.22.51.33.14.09.29.18.43.26,3.97,2.41,8.4,4.14,13.12,5.01l.44.08Z"/>
              <path class="cls-120" d="M71.75,116.09c-2.08,1.37-6.1,3.64-10.57,4.3,0,0-1.87-2.93-3.24-9.63.14.09.29.18.43.26,3.97,2.41,8.4,4.14,13.12,5.01l.26.05Z"/>
              <path class="cls-21" d="M71.92,116.12c-.65.57-1.78,1.48-3.2,2.23,0,0-.01,0-.02,0-.57.3-1.26.61-2.02.91-.02,0-.04.02-.06.02-1.66.66-3.69,1.29-5.78,1.8,0,0,0,0,0,0,0,0,0,0,0,0-.12-.21-1.97-3.59-3.25-8.73,0,0,0-.02,0-.03,0-.03-.02-.06-.02-.1-.12-.54-.15-1.2-.14-1.79.17.11.34.22.51.33.14.09.29.18.43.26.74,1.93,1.96,4.64,3.51,6.45,0,0,4.46.76,9.61-1.43l.44.08Z"/>
            </g>
            <g>
              <path class="cls-117" d="M100.25,110.23c-.12.59-.27,1.26-.45,2,0,.03-.02.06-.02.1,0,0,0,.02,0,.03-.62,2.45-1.63,5.59-3.25,8.73,0,0,0,0,0,0,0,0,0,0,0,0-.13-.02-2.65-.52-5.78-1.8-.02,0-.03-.01-.05-.02-.66-.27-1.34-.58-2.04-.93-1.2-.6-2.44-1.31-3.61-2.16.14-.02.28-.05.42-.07l.44-.08c4.73-.88,9.15-2.6,13.12-5.01.14-.09.29-.17.43-.26.17-.11.34-.22.51-.33.1-.07.21-.14.31-.2Z"/>
              <path class="cls-108" d="M99.43,110.76c-1.37,6.7-3.24,9.63-3.24,9.63-4.48-.67-8.49-2.94-10.57-4.3h0l.26-.05c4.73-.88,9.15-2.6,13.12-5.01.14-.09.29-.17.43-.26Z"/>
              <path class="cls-25" d="M99.8,112.23s-.02.06-.02.1c0,0,0,.02,0,.03-1.28,5.14-3.14,8.52-3.25,8.73,0,0,0,0,0,0,0,0,0,0,0,0-2.09-.51-4.12-1.14-5.78-1.8-.02,0-.03-.01-.05-.02-.76-.3-1.44-.61-2.02-.91,0,0-.02,0-.02-.01-1.41-.75-2.54-1.65-3.19-2.23l.44-.08c5.14,2.19,9.61,1.43,9.61,1.43,1.55-1.81,2.77-4.52,3.51-6.45.14-.09.29-.17.43-.26.17-.11.34-.22.51-.33,0,.6-.02,1.25-.14,1.79Z"/>
            </g>
            <g>
              <path class="cls-107" d="M71.92,38.98c.14-.02.28-.05.42-.07-1.18-.84-2.41-1.56-3.62-2.16,0,0-.01,0-.02,0-.69-.34-1.37-.64-2.02-.91-.02,0-.04-.02-.06-.02-3.13-1.28-5.64-1.77-5.78-1.8,0,0,0,0,0,0,0,0,0,0,0,0-1.62,3.14-2.63,6.28-3.25,8.73,0,0,0,.02,0,.03,0,.03-.02.06-.02.1-.18.74-.33,1.41-.45,2,.1-.07.21-.14.31-.2.17-.11.34-.22.51-.33.14-.09.29-.18.43-.26,3.97-2.41,8.4-4.14,13.12-5.01l.44-.08Z"/>
              <path class="cls-115" d="M71.75,39.01c-2.08-1.37-6.1-3.64-10.57-4.3,0,0-1.87,2.93-3.24,9.63.14-.09.29-.18.43-.26,3.97-2.41,8.4-4.14,13.12-5.01l.26-.05Z"/>
              <path class="cls-58" d="M71.92,38.98c-.65-.57-1.78-1.48-3.2-2.23,0,0-.01,0-.02,0-.57-.3-1.26-.61-2.02-.91-.02,0-.04-.02-.06-.02-1.66-.66-3.69-1.29-5.78-1.8,0,0,0,0,0,0,0,0,0,0,0,0-.12.21-1.97,3.59-3.25,8.73,0,0,0,.02,0,.03,0,.03-.02.06-.02.1-.12.54-.15,1.2-.14,1.79.17-.11.34-.22.51-.33.14-.09.29-.18.43-.26.74-1.93,1.96-4.64,3.51-6.45,0,0,4.46-.76,9.61,1.43l.44-.08Z"/>
              <path class="cls-19" d="M67.81,33.59c-3.9-1.43-8.04-2.73-8.04-2.73-1.27,1.95-3.99,8.95-4.12,9.28,1.43-4.87,3.07-9.99,3.68-10.25.57-.24,4.49,1.64,8.47,3.7,0,0,0,0,0,0Z"/>
            </g>
            <g>
              <path class="cls-106" d="M85.45,38.98c-.14-.02-.28-.05-.42-.07,1.18-.84,2.41-1.56,3.62-2.16,0,0,.01,0,.02,0,.69-.34,1.37-.64,2.02-.91.02,0,.04-.02.06-.02,3.13-1.28,5.64-1.77,5.78-1.8,0,0,0,0,0,0,0,0,0,0,0,0,1.62,3.14,2.63,6.28,3.25,8.73,0,0,0,.02,0,.03,0,.03.02.06.02.1.18.74.33,1.41.45,2-.1-.07-.21-.14-.31-.2-.17-.11-.34-.22-.51-.33-.14-.09-.29-.18-.43-.26-3.97-2.41-8.4-4.14-13.12-5.01l-.44-.08Z"/>
              <path class="cls-99" d="M85.63,39.01c2.08-1.37,6.1-3.64,10.57-4.3,0,0,1.87,2.93,3.24,9.63-.14-.09-.29-.18-.43-.26-3.97-2.41-8.4-4.14-13.12-5.01l-.26-.05Z"/>
              <path class="cls-24" d="M85.45,38.98c.65-.57,1.78-1.48,3.2-2.23,0,0,.01,0,.02,0,.57-.3,1.26-.61,2.02-.91.02,0,.04-.02.06-.02,1.66-.66,3.69-1.29,5.78-1.8,0,0,0,0,0,0,0,0,0,0,0,0,.12.21,1.97,3.59,3.25,8.73,0,0,0,.02,0,.03,0,.03.02.06.02.1.12.54.15,1.2.14,1.79-.17-.11-.34-.22-.51-.33-.14-.09-.29-.18-.43-.26-.74-1.93-1.96-4.64-3.51-6.45,0,0-4.46-.76-9.61,1.43l-.44-.08Z"/>
              <path class="cls-45" d="M89.57,33.59c3.9-1.43,8.04-2.73,8.04-2.73,1.27,1.95,3.99,8.95,4.12,9.28-1.43-4.87-3.07-9.99-3.68-10.25-.57-.24-4.49,1.64-8.47,3.7,0,0,0,0,0,0Z"/>
            </g>
            <g>
              <path class="cls-97" d="M110.58,54.87c-.08-.12-.16-.23-.25-.35,1.43.23,2.81.6,4.08,1.03,0,0,.01,0,.02,0,.73.24,1.42.51,2.07.78.02,0,.04.02.06.03,3.12,1.3,5.25,2.73,5.36,2.81,0,0,0,0,0,0,0,0,0,0,0,.01-1.07,3.36-2.57,6.3-3.86,8.48,0,0,0,.02-.02.03-.02.03-.03.06-.05.08-.39.65-.76,1.23-1.09,1.73-.02-.12-.05-.24-.08-.36-.04-.2-.09-.4-.13-.59-.04-.16-.08-.33-.12-.49-1.11-4.51-3.02-8.86-5.75-12.81l-.26-.37Z"/>
              <path class="cls-111" d="M110.68,55.02c2.44.5,6.88,1.73,10.52,4.42,0,0-.75,3.4-4.51,9.11-.04-.16-.08-.33-.12-.49-1.11-4.51-3.02-8.86-5.75-12.81l-.15-.22Z"/>
              <path class="cls-76" d="M110.58,54.87c.86.05,2.31.21,3.84.68,0,0,.01,0,.02,0,.62.19,1.32.45,2.07.78.02,0,.04.02.06.03,1.64.71,3.52,1.69,5.36,2.81,0,0,0,0,0,0,0,0,0,0,0,.01-.06.23-1.13,3.93-3.86,8.48,0,0,0,.02-.02.03-.02.03-.03.06-.05.08-.3.47-.74.95-1.17,1.37-.04-.2-.09-.4-.13-.59-.04-.16-.08-.33-.12-.49.84-1.89,1.89-4.67,2.06-7.04,0,0-2.62-3.69-7.82-5.77l-.26-.37Z"/>
              <path class="cls-66" d="M117.15,54.4c3.51,1.59,7.09,3.41,7.09,3.41-.43,2.11-3.17,8.51-3.29,8.81,2.21-4.15,4.45-8.6,4.21-9.17-.22-.53-4.03-1.83-8-3.05,0,0,0,0,0,0Z"/>
            </g>
            <g>
              <path class="cls-123" d="M110.58,100.15c-.08.12-.16.23-.25.35,1.43-.23,2.81-.6,4.08-1.03,0,0,.01,0,.02,0,.73-.24,1.42-.51,2.07-.78.02,0,.04-.02.06-.03,3.12-1.3,5.25-2.73,5.36-2.81,0,0,0,0,0,0,0,0,0,0,0-.01-1.07-3.36-2.57-6.3-3.86-8.48,0,0,0-.02-.02-.03-.02-.03-.03-.06-.05-.08-.39-.65-.76-1.23-1.09-1.73-.02.12-.05.24-.08.36-.04.2-.09.4-.13.59-.04.16-.08.33-.12.49-1.11,4.51-3.02,8.86-5.75,12.81l-.26.37Z"/>
              <path class="cls-113" d="M110.68,100c2.44-.5,6.88-1.73,10.52-4.42,0,0-.75-3.4-4.51-9.11-.04.16-.08.33-.12.49-1.11,4.51-3.02,8.86-5.75,12.81l-.15.22Z"/>
              <path class="cls-80" d="M110.58,100.15c.86-.05,2.31-.21,3.84-.68,0,0,.01,0,.02,0,.62-.19,1.32-.45,2.07-.78.02,0,.04-.02.06-.03,1.64-.71,3.52-1.69,5.36-2.81,0,0,0,0,0,0,0,0,0,0,0-.01-.06-.23-1.13-3.93-3.86-8.48,0,0,0-.02-.02-.03-.02-.03-.03-.06-.05-.08-.3-.47-.74-.95-1.17-1.37-.04.2-.09.4-.13.59-.04.16-.08.33-.12.49.84,1.89,1.89,4.67,2.06,7.04,0,0-2.62,3.69-7.82,5.77l-.26.37Z"/>
              <path class="cls-29" d="M117.15,100.62c3.51-1.59,7.09-3.41,7.09-3.41-.43-2.11-3.17-8.51-3.29-8.81,2.21,4.15,4.45,8.6,4.21,9.17-.22.53-4.03,1.83-8,3.05,0,0,0,0,0,0Z"/>
            </g>
            <g>
              <path class="cls-114" d="M46.6,54.87c.08-.12.16-.23.25-.35-1.43.23-2.81.6-4.08,1.03,0,0-.01,0-.02,0-.73.24-1.42.51-2.07.78-.02,0-.04.02-.06.03-3.12,1.3-5.25,2.73-5.36,2.81,0,0,0,0,0,0,0,0,0,0,0,.01,1.07,3.36,2.57,6.3,3.86,8.48,0,0,0,.02.02.03.02.03.03.06.05.08.39.65.76,1.23,1.09,1.73.02-.12.05-.24.08-.36.04-.2.09-.4.13-.59.04-.16.08-.33.12-.49,1.11-4.51,3.02-8.86,5.75-12.81l.26-.37Z"/>
              <path class="cls-93" d="M46.5,55.02c-2.44.5-6.88,1.73-10.52,4.42,0,0,.75,3.4,4.51,9.11.04-.16.08-.33.12-.49,1.11-4.51,3.02-8.86,5.75-12.81l.15-.22Z"/>
              <path class="cls-22" d="M46.6,54.87c-.86.05-2.31.21-3.84.68,0,0-.01,0-.02,0-.62.19-1.32.45-2.07.78-.02,0-.04.02-.06.03-1.64.71-3.52,1.69-5.36,2.81,0,0,0,0,0,0,0,0,0,0,0,.01.06.23,1.13,3.93,3.86,8.48,0,0,0,.02.02.03.02.03.03.06.05.08.3.47.74.95,1.17,1.37.04-.2.09-.4.13-.59.04-.16.08-.33.12-.49-.84-1.89-1.89-4.67-2.06-7.04,0,0,2.62-3.69,7.82-5.77l.26-.37Z"/>
              <path class="cls-37" d="M40.03,54.4c-3.51,1.59-7.09,3.41-7.09,3.41.43,2.11,3.19,8.77,3.32,9.07-2.13-3.94-4.4-9.21-4.23-9.43.34-.46,4.03-1.83,8-3.05,0,0,0,0,0,0Z"/>
            </g>
            <g>
              <path class="cls-121" d="M46.6,100.15c.08.12.16.23.25.35-1.43-.23-2.81-.6-4.08-1.03,0,0-.01,0-.02,0-.73-.24-1.42-.51-2.07-.78-.02,0-.04-.02-.06-.03-3.12-1.3-5.25-2.73-5.36-2.81,0,0,0,0,0,0,0,0,0,0,0-.01,1.07-3.36,2.57-6.3,3.86-8.48,0,0,0-.02.02-.03.02-.03.03-.06.05-.08.39-.65.76-1.23,1.09-1.73.02.12.05.24.08.36.04.2.09.4.13.59.04.16.08.33.12.49,1.11,4.51,3.02,8.86,5.75,12.81l.26.37Z"/>
              <path class="cls-118" d="M46.5,100c-2.44-.5-6.88-1.73-10.52-4.42,0,0,.75-3.4,4.51-9.11.04.16.08.33.12.49,1.11,4.51,3.02,8.86,5.75,12.81l.15.22Z"/>
              <path class="cls-30" d="M46.6,100.15c-.86-.05-2.31-.21-3.84-.68,0,0-.01,0-.02,0-.62-.19-1.32-.45-2.07-.78-.02,0-.04-.02-.06-.03-1.64-.71-3.52-1.69-5.36-2.81,0,0,0,0,0,0,0,0,0,0,0-.01.06-.23,1.13-3.93,3.86-8.48,0,0,0-.02.02-.03.02-.03.03-.06.05-.08.3-.47.74-.95,1.17-1.37.04.2.09.4.13.59.04.16.08.33.12.49-.84,1.89-1.89,4.67-2.06,7.04,0,0,2.62,3.69,7.82,5.77l.26.37Z"/>
              <path class="cls-84" d="M40.03,100.62c-3.51-1.59-7.09-3.41-7.09-3.41.43-2.11,3.17-8.51,3.29-8.81-2.21,4.15-4.45,8.6-4.21,9.17.22.53,4.03,1.83,8,3.05,0,0,0,0,0,0Z"/>
            </g>
            <path class="cls-60" d="M115.09,91.93c-5.74,14.49-19.87,24.73-36.4,24.73-15.63,0-29.12-9.16-35.39-22.41,14.43,13.3,43.76,25.71,71.8-2.32Z"/>
            <path class="cls-7" d="M112.76,101.94c-1.77.51-3.38.95-4.55,1.28-1.36,1.56-2.83,3.01-4.42,4.33-.34,1.25-.88,3.19-1.5,5.33-4.58,3.27-9.91,5.87-15.19,7.29-3.31-1.75-6.18-3.34-6.55-3.55-.62.03-1.25.05-1.88.05s-1.26-.02-1.88-.04c-.38.21-3.33,1.84-6.7,3.63-5.29-1.34-10.53-3.81-14.95-7.07-.65-2.26-1.23-4.33-1.58-5.63-1.58-1.33-3.06-2.78-4.42-4.33-.98-.27-2.27-.63-3.69-1.03-1.26-2.52-2.03-5.18-2.17-7.94,10.39,17.19,45.27,37.65,71.8-2.32.5,3.28-.41,6.71-2.32,10.01Z"/>
            <path class="cls-42" d="M78.68,38.37c-17.71,0-32.68,11.77-37.51,27.91,6.41-14.16,20.95-20.98,37.51-20.98,18.06,0,33.08,8.68,38.47,24.93-3.41-18.14-19.34-31.87-38.47-31.87Z"/>
            <path class="cls-94" d="M78.68,45.3c-17.79,0-32.21,14.42-32.21,32.21s14.42,32.21,32.21,32.21,32.21-14.42,32.21-32.21-14.42-32.21-32.21-32.21ZM78.68,107.03c-16.3,0-29.51-13.21-29.51-29.51s13.21-29.51,29.51-29.51,29.51,13.21,29.51,29.51-13.21,29.51-29.51,29.51Z"/>
            <path class="cls-79" d="M52.75,96.63s8.63,10.39,25.93,10.39,25.93-10.39,25.93-10.39c0,0-8.42,13.56-25.93,13.56s-25.93-13.56-25.93-13.56Z"/>
            <path class="cls-122" d="M52.75,96.63s8.63,13.09,25.93,13.09,25.93-13.09,25.93-13.09c0,0-8.42,13.56-25.93,13.56s-25.93-13.56-25.93-13.56Z"/>
            <path class="cls-54" d="M109.69,68.75c-.76-.43-1.92-1.14-3.63-2.29h0s-2.24-6.61-8.87-11.95c-4.27-3.45-10.49-6.49-18.69-6.49s-14.16,3.14-18.39,6.56c-7.05,5.7-9.17,12.88-9.17,12.88-1.56,1.63-2.93,2.94-3.79,3.51,3.02-14.65,16-25.67,31.55-25.67,14.75,0,27.19,9.92,31,23.45Z"/>
            <path class="cls-100" d="M78.68,42.12c-1.28,1.65,8.94,4.35,10.16,3.18,1.22-1.17.07-2.9-2.23-3.18-2.31-.29-6.92-1.3-7.93,0Z"/>
            <path class="cls-100" d="M76.4,110.12c-.74-1.38,7.31-2.77,8.44-1.76,1.13,1.01-.89,1.41-.89,1.41l-7.55.35Z"/>
            <path class="cls-88" d="M71.62,114.86c-.64,2.42-4.13,3.6-7.81,2.63s-6.13-3.72-5.49-6.14c.64-2.42,4.13-3.6,7.81-2.63s6.13,3.72,5.49,6.14Z"/>
            <path class="cls-35" d="M125.32,59.44c.03,1.08-5.24,11.46-7.57,15.73l-.16-2.54s6.63-10.3,7.56-15.19l.2.41h0c.01.57-.04,1.52-.03,1.59Z"/>
            <path class="cls-31" d="M125.32,97.59s-.06.09-.12.14c-.02-.05-.03-.1-.05-.16-1.59-5.8-7.56-15.17-7.56-15.17l.16-2.52c2.33,4.26,7.97,14.76,7.57,15.73-.04.09.08,1.79,0,1.98Z"/>
            <path class="cls-71" d="M39.61,79.88v2.92s-4.63,6.62-7.58,14.75c-.06-.32.05-1.86.01-1.94-.41-.97,5.24-11.46,7.57-15.73Z"/>
            <path class="cls-52" d="M39.61,72.1v3.08c-2.33-4.26-7.6-14.32-7.57-15.73,0-.1-.08-1.71,0-1.97,3.38,9.43,7.57,14.62,7.57,14.62Z"/>
            <path class="cls-91" d="M75.06,116.5l1.74.14c-.91.5-16.29,9.02-17.47,8.52-.29-.12-.79-1.29-1.4-3,.07.14,1.15,2.36,1.72,2.36s15.4-8.02,15.4-8.02Z"/>
            <path class="cls-103" d="M99.42,122.17c-.6,1.7-1.11,2.86-1.39,2.98-1.18.5-16.56-8.02-17.47-8.52l2.18-.18s10.37,6.5,14.59,7.8c1.07.33,2.01-1.88,2.09-2.08Z"/>
          </g>
        </g>
      </g>
    </g>
  </g>
</svg>